<svg version="1.1" xmlns="http://www.w3.org/2000/svg" width="40" height="40" viewBox="0 0 512 512" xmlns:xlink="http://www.w3.org/1999/xlink">
  <path d="M398.5 34.7c-38.1 9.2-96.9 23.5-99.7 24.3-7.6 2.2-12.8 8.8-12.8 16.2.1 3.8 10 47.2 11.1 48.3.4.4 131-31.2 131.6-31.9.9-.9-11.1-46.9-13-49.8-3.5-5.2-11.5-8.5-17.2-7.1m-388 13.7c-3.7 1.7-8 6.2-9.4 9.9C.4 60 0 70.7 0 85.6V110h135V85.7c0-21.4-.3-24.7-1.9-28.2-2.1-4.6-5.4-7.9-9.4-9.4-4.5-1.7-109.3-1.4-113.2.3m141.5.9c-3 1.6-5.1 3.7-6.7 6.7-2.2 4.2-2.3 5.2-2.3 29.2V110h135V86.2c0-13-.5-25.3-1-27.2-1.1-4.1-6.1-9.4-10.3-10.9-1.9-.7-21.1-1.1-56.6-1.1h-53.8zm211.5 66.4c-35.2 8.6-64.2 15.8-64.4 15.9-.3.3 6.9 30.5 7.4 31.2.2.3 87.3-20.7 119.6-28.8l12.6-3.2-3.7-15.1c-3.1-12.6-4.1-15.2-5.6-15.4-1.1-.1-30.7 6.9-65.9 15.4M0 134v16h135v-32H0zm143 0v16h135v-32H143zm230.2 21c-35.4 8.7-64.5 16-64.6 16.2-.3.4 48.4 201.1 48.9 201.6.5.6 129.8-30.9 130.9-31.9.5-.5-9.2-42.6-23.4-101.4-19.6-80.9-24.7-100.5-25.9-100.4-.9.1-30.5 7.2-65.9 15.9M0 262v104h135V158H0zm143 0v104h135V158H143zm281.6 103.1c-35.7 8.7-65 16-65.1 16.1-.6.9 7.2 30.2 8.2 30.5 1.4.5 129.4-30.5 130.5-31.6.9-.9-6.5-31.1-7.7-31-.5 0-30.2 7.2-65.9 16M0 390.5V407h135l-.2-16.3-.3-16.2-67.2-.3L0 374zm143 0V407h135v-33H143zm292 13.8c-36 8.7-65.6 16-65.8 16.2-.8.7 11.1 46.5 12.8 49.3 2.3 3.7 7.1 6.9 11.5 7.8 3.3.6 104.2-23.4 109.2-25.9 5.5-2.9 9.3-8.7 9.3-14.5 0-2.2-10.7-48.4-11.3-48.8-.1 0-29.7 7.1-65.7 15.9M.2 440.8l.3 25.9 2.8 3.6c5.7 7.5 2.7 7.2 64.2 7.2h55l3.7-2.3c2-1.3 4.7-4 6-6 2.2-3.6 2.3-4.6 2.6-29l.3-25.2H-.1zm142.8-1.3c0 18.5.3 25.4 1.4 27.8 1.7 4.2 6.6 8.3 11.4 9.7 6 1.6 105.7 1.3 110.5-.4 5-1.8 7.6-4.2 9.8-9.1 1.6-3.5 1.9-6.9 1.9-28.3V415H143z"></path>
</svg>